<svg xmlns="http://www.w3.org/2000/svg" width="20.089" height="9.333" viewBox="0 0 20.089 9.333">
  <g id="Group_297" data-name="Group 297" transform="translate(20.089) rotate(90)">
    <g id="Group_288" data-name="Group 288" transform="translate(0 0)">
      <path id="Path_226" data-name="Path 226" d="M335.135,683.122v9.713a.253.253,0,0,0,.253.253H339a.253.253,0,0,0,.253-.253v-9.871h2.615a.253.253,0,0,0,.252-.232l.252-2.974a.253.253,0,0,0-.252-.275h-2.867v-2.11a.9.9,0,0,1,.9-.9h2.016a.253.253,0,0,0,.253-.253v-2.974a.253.253,0,0,0-.253-.253h-3.405a3.619,3.619,0,0,0-3.619,3.618v2.867h-1.8a.253.253,0,0,0-.253.253v2.974a.253.253,0,0,0,.253.253h1.8Z" transform="translate(-333.079 -672.998)" fill="#fff" fill-rule="evenodd"/>
    </g>
  </g>
</svg>
