<svg id="Group_299" data-name="Group 299" xmlns="http://www.w3.org/2000/svg" width="17.672" height="16.878" viewBox="0 0 17.672 16.878">
  <g id="Group_293" data-name="Group 293" transform="translate(0.247 5.231)">
    <g id="Group_292" data-name="Group 292">
      <g id="Group_291" data-name="Group 291">
        <path id="Path_228" data-name="Path 228" d="M515.892,688.657V694.9a.28.28,0,0,1-.28.28h-3.224a.28.28,0,0,1-.28-.28v-5.81c0-1.529-.546-2.573-1.916-2.573a2.07,2.07,0,0,0-1.941,1.384,2.593,2.593,0,0,0-.125.922V694.9a.28.28,0,0,1-.28.28h-3.223a.278.278,0,0,1-.28-.28c.007-1.547.04-9.053.006-10.817a.278.278,0,0,1,.28-.283h3.217a.279.279,0,0,1,.28.279v1.333c-.008.012-.019.025-.025.037h.025v-.037a3.756,3.756,0,0,1,3.41-1.88c2.489,0,4.356,1.627,4.356,5.121Zm-17.145,6.527h3.224a.28.28,0,0,0,.28-.28V684.082a.279.279,0,0,0-.28-.279h-3.224a.279.279,0,0,0-.279.279V694.9A.279.279,0,0,0,498.747,695.183Z" transform="translate(-498.468 -683.536)" fill="#fff"/>
      </g>
    </g>
  </g>
  <g id="Group_294" data-name="Group 294" transform="translate(0 0)">
    <path id="Path_229" data-name="Path 229" d="M502.1,676.617a2.025,2.025,0,1,1-2.025-2.025A2.025,2.025,0,0,1,502.1,676.617Z" transform="translate(-498.045 -674.592)" fill="#fff"/>
  </g>
</svg>
