<svg id="Group_298" data-name="Group 298" xmlns="http://www.w3.org/2000/svg" width="20.955" height="20.955" viewBox="0 0 20.955 20.955">
  <path id="Path_227" data-name="Path 227" d="M392.83,676.415a1.232,1.232,0,1,0,1.232,1.232A1.232,1.232,0,0,0,392.83,676.415ZM387.353,678a5.175,5.175,0,1,0,5.175,5.174A5.181,5.181,0,0,0,387.353,678Zm0,8.49a3.315,3.315,0,1,1,3.315-3.315A3.319,3.319,0,0,1,387.353,686.485Zm10.442-7.616a6.312,6.312,0,0,0-6.312-6.312h-8.33a6.312,6.312,0,0,0-6.313,6.312V687.2a6.312,6.312,0,0,0,6.313,6.311h8.33A6.311,6.311,0,0,0,397.8,687.2Zm-1.977,8.332a4.335,4.335,0,0,1-4.335,4.335h-8.33a4.335,4.335,0,0,1-4.336-4.335v-8.332a4.336,4.336,0,0,1,4.336-4.335h8.33a4.335,4.335,0,0,1,4.335,4.335Z" transform="translate(-376.84 -672.557)" fill="#fff"/>
</svg>
