<svg id="af012940-da73-4bf5-a17c-e7837173ae73" data-name="Layer 1" xmlns="http://www.w3.org/2000/svg" viewBox="0 0 1920 1920"><defs><style>.ea489a30-ce9f-4226-98c7-28599a18646c{fill:#e01d3b;}.a29ce41b-4fef-4656-89cf-e5ba032e93b4{fill:#231f20;}.fec282a8-2fc5-4596-a6bc-6c0660769a5e{fill:#f2b7c0;}.e34fc1b6-a2b9-4d61-817a-fa533410669c{fill:#ef879b;}.aa07d0de-659d-4267-9102-6c1fbd339b31{fill:#f9dbe1;}.f9d7e243-6e0a-4a53-b971-69119c8439df{fill:#fbd1d9;}.fb90be62-7b4d-4fff-9882-49ac8d1d08ce{fill:#f19eaf;}.b2e5beab-2d0d-4322-ac28-7ce4e600aefb{fill:#f19eae;}</style></defs><title>Logo icon versions</title><rect class="ea489a30-ce9f-4226-98c7-28599a18646c" width="1920" height="1920" rx="320"/><polygon class="a29ce41b-4fef-4656-89cf-e5ba032e93b4" points="320 320 640 640.02 960 320 1600 320 1280 640.02 1600 960.02 960 960.02 320 1600 320 320"/><polygon class="fec282a8-2fc5-4596-a6bc-6c0660769a5e" points="960 320 1600 320 1280 640.02 960 320"/><polygon class="e34fc1b6-a2b9-4d61-817a-fa533410669c" points="1280 640.02 1600 960.02 960 960.02 1280 640.02"/><polygon class="aa07d0de-659d-4267-9102-6c1fbd339b31" points="960 320 1280 640.02 960 960.02 960 320"/><polygon class="f9d7e243-6e0a-4a53-b971-69119c8439df" points="640 640.02 960 320 960 960.02 640 640.02"/><polygon class="fec282a8-2fc5-4596-a6bc-6c0660769a5e" points="320 320 640 640.02 320 959.98 320 320"/><polygon class="fb90be62-7b4d-4fff-9882-49ac8d1d08ce" points="640 640.02 960 960.02 320 959.98 640 640.02"/><polygon class="e34fc1b6-a2b9-4d61-817a-fa533410669c" points="960 960.02 640.02 1279.99 320 959.98 960 960.02"/><polygon class="b2e5beab-2d0d-4322-ac28-7ce4e600aefb" points="640.02 1279.99 320 1600 320 959.98 640.02 1279.99"/></svg>